<svg width="557" height="337" viewBox="0 0 557 337" fill="none" xmlns="http://www.w3.org/2000/svg">
<path d="M335.389 115.395C213.778 115.623 115.24 214.489 115.013 336.498L0.42377 336.498C0.651114 150.99 150.495 0.652716 335.389 0.423887L335.389 115.395Z" fill="white" stroke="white" stroke-width="0.845965"/>
<path d="M555.766 115.395C434.155 115.623 335.617 214.489 335.39 336.498L220.801 336.498C221.028 150.99 370.872 0.652716 555.766 0.423887L555.766 115.395Z" fill="white" stroke="white" stroke-width="0.845965"/>
<path d="M0 0L115.435 0L115.435 336.921H0L0 0Z" fill="#FFBE2C"/>
<path d="M220.377 0L335.812 0L335.812 336.921H220.377L220.377 0Z" fill="#FF3366"/>
<path d="M440.754 0L556.189 0V336.921H440.754L440.754 0Z" fill="#43A6CF"/>
</svg>
