<svg width="2114" height="337" viewBox="0 0 2114 337" fill="none" xmlns="http://www.w3.org/2000/svg">
<path d="M335.389 115.395C213.778 115.623 115.24 214.489 115.013 336.498L0.42377 336.498C0.651114 150.99 150.495 0.652716 335.389 0.423887L335.389 115.395Z" fill="white" stroke="white" stroke-width="0.845965"/>
<path d="M555.766 115.395C434.155 115.623 335.617 214.489 335.39 336.498L220.801 336.498C221.028 150.99 370.872 0.652716 555.766 0.423887L555.766 115.395Z" fill="white" stroke="white" stroke-width="0.845965"/>
<path d="M0 0L115.435 0L115.435 336.921H0L0 0Z" fill="#FFBE2C"/>
<path d="M220.377 0L335.812 0L335.812 336.921H220.377L220.377 0Z" fill="#FF3366"/>
<path d="M440.754 0L556.189 0V336.921H440.754L440.754 0Z" fill="#43A6CF"/>
<path d="M753.779 247.96V88.7128H804.127L841.464 235.514H842.029L879.083 88.7128H929.149V247.96H899.166L901.146 101.724H900.863L862.678 247.96H820.249L782.63 101.724H782.064L783.761 247.96H753.779ZM1009.87 250.789C996.48 250.789 985.543 247.96 977.057 242.303C968.76 236.457 962.537 229.009 958.389 219.957C954.429 210.906 952.354 201.478 952.166 191.672C951.977 179.981 954.146 169.609 958.671 160.558C963.386 151.318 969.986 144.152 978.471 139.061C987.146 133.781 997.328 131.141 1009.02 131.141C1019.39 131.141 1028.73 133.404 1037.02 137.929C1045.32 142.455 1051.82 148.772 1056.54 156.881C1061.44 164.989 1063.99 174.701 1064.18 186.015C1064.18 186.392 1064.18 187.523 1064.18 189.409C1064.18 191.106 1064.18 192.426 1064.18 193.369H979.603C979.603 204.117 982.243 212.415 987.523 218.26C992.991 223.917 1000.25 226.746 1009.3 226.746C1016.47 226.746 1022.41 224.954 1027.12 221.372C1032.03 217.789 1034.95 213.075 1035.89 207.229H1063.89C1063.14 215.337 1060.5 222.692 1055.97 229.292C1051.45 235.891 1045.32 241.171 1037.59 245.131C1029.86 248.903 1020.62 250.789 1009.87 250.789ZM980.451 180.358H1035.33C1035.14 179.038 1034.76 176.963 1034.19 174.135C1033.63 171.306 1032.4 168.383 1030.52 165.366C1028.63 162.349 1025.9 159.804 1022.31 157.729C1018.73 155.655 1014.11 154.618 1008.45 154.618C1002.8 154.618 998.177 155.561 994.594 157.446C991.011 159.332 988.277 161.689 986.391 164.518C984.506 167.346 983.091 170.175 982.148 173.003C981.206 175.832 980.64 178.283 980.451 180.358ZM1086.21 247.96V131.707H1113.65L1114.22 156.881H1114.78C1114.97 156.126 1115.63 154.524 1116.76 152.072C1118.08 149.432 1120.06 146.604 1122.7 143.587C1125.53 140.381 1129.11 137.647 1133.45 135.384C1137.79 132.932 1143.16 131.707 1149.57 131.707C1155.8 131.707 1160.98 132.932 1165.13 135.384C1169.28 137.835 1172.58 140.947 1175.03 144.718C1177.67 148.489 1179.56 152.544 1180.69 156.881H1181.25C1181.44 156.126 1182.29 154.429 1183.8 151.789C1185.31 149.149 1187.48 146.321 1190.31 143.304C1193.13 140.098 1196.81 137.364 1201.34 135.101C1206.05 132.838 1211.71 131.707 1218.31 131.707C1225.66 131.707 1231.7 133.31 1236.41 136.515C1241.31 139.532 1245.18 143.492 1248.01 148.395C1250.84 153.109 1252.91 158.201 1254.23 163.669C1255.74 169.138 1256.68 174.418 1257.06 179.509C1257.44 184.412 1257.62 188.466 1257.62 191.672V247.96H1229.62V191.389C1229.62 188.372 1229.43 184.978 1229.06 181.206C1228.87 177.246 1228.11 173.475 1226.79 169.892C1225.66 166.121 1223.68 163.104 1220.85 160.841C1218.02 158.389 1214.06 157.164 1208.97 157.164C1202.75 157.164 1197.94 158.955 1194.55 162.538C1191.34 165.932 1189.08 170.363 1187.76 175.832C1186.63 181.112 1186.06 186.675 1186.06 192.52V247.96H1157.78V191.389C1157.78 188.372 1157.68 184.978 1157.49 181.206C1157.31 177.246 1156.55 173.475 1155.23 169.892C1153.91 166.121 1151.84 163.104 1149.01 160.841C1146.18 158.389 1142.22 157.164 1137.13 157.164C1131.09 157.164 1126.38 158.955 1122.99 162.538C1119.59 165.932 1117.23 170.363 1115.91 175.832C1114.78 181.112 1114.22 186.675 1114.22 192.52V247.96H1086.21ZM1333.61 250.789C1320.79 250.789 1309.95 248.243 1301.08 243.151C1292.41 238.06 1285.9 231.083 1281.57 222.22C1277.23 213.169 1275.06 202.892 1275.06 191.389C1275.06 179.698 1277.23 169.421 1281.57 160.558C1285.9 151.507 1292.41 144.435 1301.08 139.344C1309.95 134.252 1320.88 131.707 1333.89 131.707C1352.94 131.707 1367.36 137.175 1377.17 148.112C1387.16 159.049 1392.16 173.475 1392.16 191.389C1392.16 202.515 1390.09 212.603 1385.94 221.654C1381.79 230.706 1375.38 237.871 1366.7 243.151C1358.03 248.243 1347 250.789 1333.61 250.789ZM1333.61 226.463C1342.1 226.463 1348.51 224.672 1352.85 221.089C1357.37 217.506 1360.39 212.98 1361.9 207.512C1363.4 201.855 1364.16 196.198 1364.16 190.54C1364.16 184.506 1363.4 178.755 1361.9 173.286C1360.39 167.818 1357.37 163.292 1352.85 159.709C1348.51 155.938 1342.1 154.052 1333.61 154.052C1325.31 154.052 1318.9 155.938 1314.38 159.709C1310.04 163.292 1307.02 167.818 1305.33 173.286C1303.82 178.755 1303.06 184.506 1303.06 190.54C1303.06 196.198 1303.82 201.855 1305.33 207.512C1307.02 212.98 1310.04 217.506 1314.38 221.089C1318.9 224.672 1325.31 226.463 1333.61 226.463ZM1413.85 247.96V131.707H1440.72L1442.99 165.649L1442.7 190.54V247.96H1413.85ZM1442.7 197.895L1441.85 172.155C1441.85 168.195 1442.61 163.952 1444.12 159.426C1445.63 154.712 1448.08 150.281 1451.47 146.132C1455.05 141.984 1459.67 138.589 1465.33 135.949C1470.99 133.121 1477.96 131.707 1486.26 131.707H1490.5V163.952H1486.26C1478.15 163.952 1471.27 164.612 1465.61 165.932C1459.96 167.064 1455.43 168.949 1452.04 171.589C1448.83 174.229 1446.47 177.718 1444.97 182.055C1443.46 186.392 1442.7 191.672 1442.7 197.895ZM1502.92 247.96L1553.83 88.7128H1601.07L1653.4 247.96H1622.57L1577.88 100.876L1533.47 247.96H1502.92ZM1537.14 202.986L1537.43 180.641H1618.04L1618.32 202.986H1537.14ZM1696.22 242.869V93.8041H1724.79V242.869H1696.22ZM1674.73 247.96V223.352H1745.72V247.96H1674.73ZM1674.73 113.604V88.7128H1745.72V113.604H1674.73ZM1774.55 247.96V227.029L1844.99 152.638H1778.51V131.141H1878.65V152.072L1809.63 226.463H1878.65V247.96H1774.55Z" fill="white"/>
</svg>
